<svg width="28" height="24" viewBox="0 0 28 24" fill="none" xmlns="http://www.w3.org/2000/svg">
<g clip-path="url(#clip0_119_942)">
<path d="M18.6198 1.5C19.0687 1.5 19.4993 1.65804 19.8167 1.93934C20.1342 2.22064 20.3125 2.60218 20.3125 3V21C20.3125 21.3978 20.1342 21.7794 19.8167 22.0607C19.4993 22.342 19.0687 22.5 18.6198 22.5H8.46354C8.01461 22.5 7.58406 22.342 7.26662 22.0607C6.94917 21.7794 6.77083 21.3978 6.77083 21V3C6.77083 2.60218 6.94917 2.22064 7.26662 1.93934C7.58406 1.65804 8.01461 1.5 8.46354 1.5H18.6198ZM8.46354 0C7.56567 0 6.70458 0.316071 6.06969 0.87868C5.4348 1.44129 5.07813 2.20435 5.07812 3V21C5.07813 21.7956 5.4348 22.5587 6.06969 23.1213C6.70458 23.6839 7.56567 24 8.46354 24H18.6198C19.5177 24 20.3788 23.6839 21.0136 23.1213C21.6485 22.5587 22.0052 21.7956 22.0052 21V3C22.0052 2.20435 21.6485 1.44129 21.0136 0.87868C20.3788 0.316071 19.5177 0 18.6198 0L8.46354 0Z" fill="white"/>
<path d="M13.5417 21C13.9906 21 14.4212 20.842 14.7386 20.5607C15.0561 20.2794 15.2344 19.8978 15.2344 19.5C15.2344 19.1022 15.0561 18.7206 14.7386 18.4393C14.4212 18.158 13.9906 18 13.5417 18C13.0928 18 12.6622 18.158 12.3448 18.4393C12.0273 18.7206 11.849 19.1022 11.849 19.5C11.849 19.8978 12.0273 20.2794 12.3448 20.5607C12.6622 20.842 13.0928 21 13.5417 21Z" fill="white"/>
</g>
<defs>
<clipPath id="clip0_119_942">
<rect width="27.0833" height="24" fill="white"/>
</clipPath>
</defs>
</svg>
