<svg width="30" height="31" viewBox="0 0 30 31" fill="none" xmlns="http://www.w3.org/2000/svg">
<g clip-path="url(#clip0_29_1971)">
<path d="M13.6082 4.34829C15.4133 4.34658 17.1784 4.89814 18.6801 5.9332C20.1818 6.96825 21.3527 8.44029 22.0446 10.1631C22.7365 11.8859 22.9184 13.7821 22.5673 15.6117C22.2161 17.4414 21.3477 19.1223 20.0719 20.4418C18.796 21.7614 17.1701 22.6603 15.3998 23.0248C13.6295 23.3893 11.7944 23.2031 10.1265 22.4897C8.45865 21.7763 7.03303 20.5677 6.02999 19.0169C5.02696 17.4661 4.49157 15.6427 4.49157 13.7775C4.50252 11.2817 5.46627 8.89117 7.17337 7.12556C8.88048 5.35994 11.193 4.36187 13.6082 4.34829ZM13.6082 2.58301C11.4656 2.58301 9.3711 3.23955 7.58956 4.46961C5.80803 5.69967 4.4195 7.44801 3.59955 9.49352C2.7796 11.539 2.56506 13.7899 2.98307 15.9614C3.40107 18.1329 4.43285 20.1275 5.94792 21.6931C7.46299 23.2587 9.3933 24.3249 11.4948 24.7568C13.5962 25.1887 15.7744 24.9671 17.754 24.1198C19.7335 23.2725 21.4254 21.8377 22.6158 19.9968C23.8062 18.1558 24.4416 15.9915 24.4416 13.7775C24.4416 10.8085 23.3002 7.96115 21.2686 5.86178C19.2369 3.76242 16.4814 2.58301 13.6082 2.58301Z" fill="#454056"/>
<path d="M29.1666 28.6668L23.0249 22.2773L21.8416 23.4915L27.9832 29.881C28.0604 29.9612 28.1521 30.025 28.2531 30.0687C28.3541 30.1124 28.4624 30.1351 28.5719 30.1355C28.6814 30.1359 28.7899 30.114 28.8912 30.071C28.9926 30.0281 29.0847 29.965 29.1624 29.8853C29.2401 29.8055 29.3018 29.7108 29.3441 29.6064C29.3863 29.502 29.4083 29.3901 29.4087 29.2769C29.4091 29.1638 29.3879 29.0517 29.3463 28.947C29.3048 28.8423 29.2437 28.7471 29.1666 28.6668Z" fill="#454056"/>
</g>
<defs>
<clipPath id="clip0_29_1971">
<rect width="30" height="31" fill="white"/>
</clipPath>
</defs>
</svg>
