<svg width="545" height="326" viewBox="0 0 545 326" fill="none" xmlns="http://www.w3.org/2000/svg">
<path d="M40.1961 25.127L10.1317 157.239L191.096 198.346L221.16 66.2341L40.1961 25.127Z" fill="black"/>
<path d="M43.5843 30.4825L15.5094 153.853L187.701 192.967L215.776 69.5968L43.5843 30.4825Z" fill="white"/>
<path d="M22.3745 123.671L15.5066 153.851L187.698 192.965L194.566 162.785L22.3745 123.671Z" fill="#BBB7C5" fill-opacity="0.3"/>
<path d="M65.729 128.089C66.4787 124.791 65.2266 121.509 62.7687 119.501C63.9126 118.382 64.7705 116.938 65.1493 115.254C65.8835 112.042 64.7164 108.845 62.3899 106.822C63.0392 106.242 63.6034 105.571 64.0594 104.806C67.3366 104.188 70.0959 101.694 70.8843 98.2423C71.8195 94.1186 69.6322 90.0259 65.8835 88.4119C65.899 88.3656 65.9145 88.3193 65.9222 88.2652C66.9811 83.6164 64.0672 78.9908 59.4142 77.9329C54.7612 76.875 50.1315 79.7862 49.0726 84.435C48.8407 85.4543 48.8098 86.4737 48.9412 87.4621C48.7711 87.408 48.6011 87.354 48.4233 87.3154C43.7704 86.2574 39.1406 89.1687 38.0817 93.8175C37.3397 97.0685 38.5454 100.296 40.926 102.312C39.1406 103.493 37.7957 105.331 37.2778 107.578C36.9532 108.992 37.0073 110.397 37.3551 111.71C33.4287 111.733 29.8887 114.428 28.9844 118.42C28.397 121 29.0385 123.563 30.5071 125.525L62.7532 132.853C64.2063 131.679 65.2884 130.042 65.729 128.089Z" fill="#BBB7C5" fill-opacity="0.3"/>
<path d="M179.124 174.113C179.874 170.816 178.621 167.534 176.164 165.526C177.307 164.406 178.165 162.962 178.544 161.279C179.278 158.066 178.111 154.869 175.785 152.846C176.434 152.267 176.998 151.595 177.454 150.831C180.731 150.213 183.491 147.719 184.279 144.267C185.214 140.143 183.027 136.05 179.278 134.436C179.294 134.39 179.309 134.344 179.317 134.29C180.376 129.641 177.462 125.015 172.809 123.957C168.156 122.899 163.526 125.811 162.467 130.459C162.236 131.479 162.205 132.506 162.336 133.487C162.166 133.432 161.996 133.378 161.818 133.34C157.165 132.282 152.535 135.193 151.477 139.842C150.734 143.093 151.94 146.321 154.321 148.336C152.535 149.518 151.191 151.356 150.673 153.603C150.348 155.016 150.402 156.421 150.75 157.734C146.824 157.757 143.284 160.452 142.379 164.445C141.792 167.024 142.433 169.588 143.902 171.549L176.148 178.878C177.601 177.704 178.675 176.067 179.124 174.113Z" fill="#BBB7C5" fill-opacity="0.3"/>
<path d="M163.279 76.0252L97.4418 61.0596L79.1391 141.463L119.362 150.606L144.984 156.421L170.606 162.243L183.537 105.431L163.279 76.0252Z" fill="#9C82FF"/>
<path d="M53.5168 135.64L66.4478 78.8283L97.4418 61.0596L117.692 90.4734L104.761 147.286L53.5168 135.64Z" fill="#454056"/>
<path d="M151.639 80.0249L158.951 90.6429L164.322 67.0593L155.071 64.9512L151.639 80.0249Z" fill="#454056"/>
<path d="M164.315 67.0553L158.946 90.6465L163.574 91.6977L168.942 68.1065L164.315 67.0553Z" fill="#BBB7C5" fill-opacity="0.3"/>
<path d="M117.684 90.471L104.755 147.284L170.596 162.24L183.524 105.427L117.684 90.471Z" fill="#9C82FF"/>
<path d="M70.3509 85.4794L67.5921 97.6025L72.4156 98.6982L75.1744 86.5751L70.3509 85.4794Z" fill="white"/>
<path d="M76.3348 86.8427L73.576 98.9658L78.3995 100.062L81.1583 87.9384L76.3348 86.8427Z" fill="white"/>
<path d="M67.3091 98.8534L64.5502 110.977L69.3737 112.072L72.1326 99.9491L67.3091 98.8534Z" fill="white"/>
<path d="M73.3008 100.226L70.5407 112.35L75.3642 113.446L78.1243 101.323L73.3008 100.226Z" fill="white"/>
<path d="M64.2603 112.228L61.5014 124.352L66.3249 125.447L69.0838 113.324L64.2603 112.228Z" fill="white"/>
<path d="M70.251 113.591L67.4922 125.714L72.3157 126.81L75.0745 114.686L70.251 113.591Z" fill="white"/>
<path d="M89.859 89.913L87.1002 102.036L91.9237 103.132L94.6825 91.0087L89.859 89.913Z" fill="white"/>
<path d="M95.8523 91.2841L93.0922 103.407L97.9158 104.503L100.676 92.3803L95.8523 91.2841Z" fill="white"/>
<path d="M86.818 103.289L84.0592 115.412L88.8827 116.508L91.6415 104.385L86.818 103.289Z" fill="white"/>
<path d="M92.801 104.65L90.0422 116.773L94.8657 117.869L97.6245 105.746L92.801 104.65Z" fill="white"/>
<path d="M83.7685 116.661L81.0096 128.784L85.8332 129.88L88.592 117.757L83.7685 116.661Z" fill="white"/>
<path d="M89.7608 118.016L87.0019 130.14L91.8254 131.235L94.5843 119.112L89.7608 118.016Z" fill="white"/>
<path d="M122.448 97.3202L119.689 109.443L124.512 110.539L127.271 98.4159L122.448 97.3202Z" fill="white"/>
<path d="M128.433 98.6757L125.674 110.799L130.498 111.895L133.257 99.7714L128.433 98.6757Z" fill="white"/>
<path d="M119.405 110.694L116.646 122.817L121.47 123.913L124.229 111.79L119.405 110.694Z" fill="white"/>
<path d="M125.404 112.06L122.644 124.184L127.467 125.28L130.227 113.157L125.404 112.06Z" fill="white"/>
<path d="M116.359 124.06L113.6 136.184L118.423 137.279L121.182 125.156L116.359 124.06Z" fill="white"/>
<path d="M122.341 125.422L119.583 137.545L124.406 138.641L127.165 126.517L122.341 125.422Z" fill="white"/>
<path d="M138.792 101.03L127.111 152.361L148.643 157.253L160.325 105.921L138.792 101.03Z" fill="#454056"/>
<path d="M139.03 111.276L129.554 152.916L146.338 156.729L155.814 115.088L139.03 111.276Z" fill="#454056"/>
<path d="M151.438 106.173L146.847 105.13C143.477 104.366 140.13 106.474 139.365 109.833L156.153 113.648C156.91 110.289 154.808 106.945 151.438 106.173Z" fill="white"/>
<path d="M138.476 133.046C138.329 133.702 137.672 134.112 137.023 133.965C136.366 133.818 135.956 133.162 136.111 132.513C136.258 131.857 136.915 131.448 137.564 131.594C138.213 131.741 138.623 132.397 138.476 133.046Z" fill="white"/>
<path d="M38.4973 125.817L35.7248 138L75.4056 147.014L78.1782 134.83L38.4973 125.817Z" fill="white"/>
<path d="M41.649 139.355L39.0033 150.981L41.2191 151.485L43.8648 139.859L41.649 139.355Z" fill="#454056"/>
<path d="M67.2592 145.174L64.6135 156.8L66.8293 157.303L69.475 145.677L67.2592 145.174Z" fill="#454056"/>
<path d="M488.843 110.265L302.949 143.489L327.249 279.203L513.143 245.978L488.843 110.265Z" fill="black"/>
<path d="M485.143 115.555L308.258 147.169L330.951 273.905L507.836 242.29L485.143 115.555Z" fill="white"/>
<path d="M500.512 201.387L323.627 233.001L330.95 273.898L507.834 242.284L500.512 201.387Z" fill="#BBB7C5" fill-opacity="0.3"/>
<path d="M489.234 200.129C493.338 195.395 482.757 182.175 482.757 182.175C482.757 182.175 482.486 182.978 482.139 184.26C481.451 182.901 480.67 181.588 479.928 180.414C484.055 177.734 479.998 170.144 476.945 165.518C478.011 159.881 469.61 149.394 469.61 149.394C469.61 149.394 468.783 151.881 468.11 155.085C466.464 149.541 461.162 142.923 461.162 142.923C461.162 142.923 459.075 149.201 458.851 154.645C457.645 152.877 456.702 151.703 456.702 151.703C456.702 151.703 451.152 168.375 457.173 170.939C456.447 174.877 456.114 179.503 457.761 181.928C456.485 187.302 455.21 196.052 460.056 197.164C459.361 201.951 459.5 207.156 463.071 208.083L490.764 203.133C490.316 202.113 489.79 201.094 489.234 200.129Z" fill="#BBB7C5" fill-opacity="0.3"/>
<path d="M411.138 153.618L349.537 164.63L363.225 241.072L424.827 230.068L466.958 222.539L454.978 155.649L411.138 153.618Z" fill="#9C82FF"/>
<path d="M349.537 164.63L352.103 178.955L333.313 186.901L343.639 244.578L363.225 241.072L385.763 237.049L405.349 233.543L393.377 166.653L349.537 164.63Z" fill="#454056"/>
<path d="M454.65 155.699L393.393 166.647L405.37 233.543L466.627 222.594L454.65 155.699Z" fill="#9C82FF"/>
<path d="M359.579 189.124L341.585 192.34L342.685 198.482L360.679 195.266L359.579 189.124Z" fill="white"/>
<path d="M361.133 197.773L343.139 200.989L344.238 207.131L362.233 203.915L361.133 197.773Z" fill="white"/>
<path d="M362.678 206.415L344.684 209.631L345.784 215.773L363.778 212.557L362.678 206.415Z" fill="white"/>
<path d="M364.226 215.063L346.231 218.279L347.331 224.421L365.325 221.205L364.226 215.063Z" fill="white"/>
<path d="M365.77 223.706L347.776 226.922L348.876 233.064L366.87 229.848L365.77 223.706Z" fill="white"/>
<path d="M386.91 184.244L368.916 187.46L370.015 193.602L388.01 190.386L386.91 184.244Z" fill="white"/>
<path d="M388.456 192.883L370.462 196.1L371.561 202.242L389.556 199.026L388.456 192.883Z" fill="white"/>
<path d="M390.003 201.533L372.008 204.749L373.108 210.891L391.102 207.675L390.003 201.533Z" fill="white"/>
<path d="M391.554 210.176L373.56 213.393L374.66 219.535L392.654 216.319L391.554 210.176Z" fill="white"/>
<path d="M393.101 218.826L375.107 222.042L376.207 228.184L394.201 224.968L393.101 218.826Z" fill="white"/>
<path d="M449.764 173.008L431.769 176.224L432.869 182.366L450.863 179.15L449.764 173.008Z" fill="white"/>
<path d="M451.311 181.655L433.316 184.871L434.416 191.013L452.41 187.797L451.311 181.655Z" fill="white"/>
<path d="M452.856 190.295L434.862 193.511L435.962 199.653L453.956 196.437L452.856 190.295Z" fill="white"/>
<path d="M454.41 198.944L436.416 202.16L437.516 208.302L455.51 205.086L454.41 198.944Z" fill="white"/>
<path d="M455.957 207.593L437.963 210.81L439.062 216.952L457.057 213.736L455.957 207.593Z" fill="white"/>
<path d="M425.73 177.3L403.643 181.248L412.769 232.218L434.857 228.27L425.73 177.3Z" fill="#454056"/>
<path d="M423.471 180.407L417.833 181.415L425.96 226.805L431.598 225.797L423.471 180.407Z" fill="white"/>
<path d="M412.537 205.967C412.645 206.577 412.244 207.156 411.633 207.264C411.022 207.372 410.443 206.971 410.334 206.361C410.226 205.751 410.628 205.172 411.239 205.063C411.849 204.955 412.429 205.357 412.537 205.967Z" fill="white"/>
<path d="M402.049 215.117C402.049 215.117 394.946 236.461 405.535 234.569C416.124 232.677 402.049 215.117 402.049 215.117Z" fill="#BBB7C5" fill-opacity="0.3"/>
<path d="M372.446 220.407C372.446 220.407 365.343 241.751 375.932 239.859C386.521 237.967 372.446 220.407 372.446 220.407Z" fill="#BBB7C5" fill-opacity="0.3"/>
<path d="M475.741 216.385L447.217 221.483L450.12 237.698L478.645 232.6L475.741 216.385Z" fill="#454056"/>
<path d="M456.205 236.632L453.215 237.166L454.834 246.212L457.824 245.678L456.205 236.632Z" fill="white"/>
<path d="M475.526 233.154L472.535 233.688L474.155 242.735L477.145 242.2L475.526 233.154Z" fill="white"/>
<path d="M453.309 230.423C452.853 230.361 452.474 230.238 452.173 230.06L452.428 228.84C452.714 229.002 453.038 229.11 453.409 229.172C453.772 229.234 454.128 229.234 454.476 229.172C454.862 229.103 455.133 228.987 455.287 228.825C455.45 228.663 455.512 228.477 455.473 228.269C455.442 228.114 455.365 227.991 455.241 227.914C455.117 227.829 454.963 227.775 454.777 227.744C454.599 227.713 454.36 227.682 454.051 227.659C453.587 227.62 453.201 227.566 452.899 227.497C452.598 227.427 452.319 227.28 452.072 227.056C451.825 226.832 451.662 226.5 451.585 226.068C451.516 225.69 451.546 225.327 451.678 224.987C451.809 224.647 452.041 224.354 452.373 224.106C452.706 223.859 453.146 223.689 453.68 223.597C454.051 223.527 454.422 223.52 454.8 223.55C455.171 223.589 455.511 223.674 455.805 223.813L455.597 225.033C454.994 224.786 454.429 224.709 453.888 224.809C453.51 224.879 453.247 224.995 453.092 225.164C452.938 225.334 452.876 225.527 452.922 225.751C452.961 225.975 453.092 226.122 453.324 226.199C453.548 226.269 453.888 226.323 454.337 226.354C454.8 226.392 455.187 226.446 455.488 226.516C455.79 226.585 456.068 226.724 456.315 226.948C456.563 227.164 456.725 227.497 456.802 227.929C456.872 228.3 456.833 228.663 456.71 229.002C456.578 229.342 456.346 229.636 456.006 229.883C455.666 230.13 455.233 230.3 454.7 230.392C454.221 230.477 453.757 230.485 453.309 230.423Z" fill="white"/>
<path d="M461.641 227.589L458.936 228.075L458.673 229.566L457.289 229.813L458.719 222.824L460.049 222.585L463.82 228.647L462.406 228.902L461.641 227.589ZM461.007 226.523L459.639 224.191L459.16 226.855L461.007 226.523Z" fill="white"/>
<path d="M463.256 222.006L464.601 221.767L465.552 227.064L468.473 226.539L468.698 227.767L464.431 228.531L463.256 222.006Z" fill="white"/>
<path d="M473.745 225.62L473.961 226.832L469.455 227.635L468.288 221.11L472.694 220.322L472.91 221.535L469.849 222.083L470.104 223.504L472.809 223.017L473.018 224.191L470.313 224.678L470.583 226.191L473.745 225.62Z" fill="white"/>
<path d="M474.619 228.118L452.334 232.101L452.802 234.716L475.087 230.733L474.619 228.118Z" fill="white"/>
<path d="M323.783 294.139L199.598 294.193C192.294 294.193 186.366 288.278 186.366 280.98L186.25 23.4141C186.25 16.1166 192.171 10.1937 199.475 10.1937L323.659 10.1396C330.964 10.1396 336.892 16.0548 336.892 23.3523L337.008 280.926C337.015 288.216 331.095 294.139 323.783 294.139Z" fill="black"/>
<path d="M325.893 16.5957L288.461 16.6111C286.799 16.6111 285.454 17.9548 285.454 19.6151C285.454 21.2754 284.109 22.619 282.447 22.619L240.71 22.6345C239.048 22.6345 237.703 21.2908 237.703 19.6305C237.703 17.9703 236.358 16.6266 234.697 16.6266L197.264 16.642C194.443 16.642 192.155 18.9278 192.155 21.7541L192.256 282.633C192.256 285.451 194.543 287.737 197.372 287.737L326.017 287.683C328.838 287.683 331.126 285.397 331.126 282.571L331.002 21.7001C331.002 18.8815 328.714 16.5957 325.893 16.5957Z" fill="white"/>
<path opacity="0.3" d="M250.889 16.6265C250.889 18.1246 249.676 19.3447 248.176 19.3447C246.677 19.3447 245.456 18.1323 245.456 16.6342C245.456 15.1361 246.669 13.916 248.169 13.916C249.676 13.916 250.889 15.1284 250.889 16.6265Z" fill="white"/>
<path opacity="0.3" d="M258.657 16.6265C258.657 18.1246 257.444 19.3448 255.944 19.3448C254.445 19.3448 253.223 18.1324 253.223 16.6343C253.223 15.1362 254.437 13.9161 255.936 13.9161C257.436 13.9083 258.657 15.1284 258.657 16.6265Z" fill="white"/>
<path opacity="0.3" d="M276.888 18.5402C277.95 17.4787 277.95 15.7576 276.888 14.6961C275.825 13.6346 274.103 13.6346 273.04 14.6961C271.978 15.7576 271.978 17.4787 273.04 18.5402C274.103 19.6017 275.825 19.6017 276.888 18.5402Z" fill="white"/>
<path d="M331.072 51.3379H192.202V265.459H331.072V51.3379Z" fill="#BBB7C5" fill-opacity="0.3"/>
<path d="M224.309 51.3613L224.409 206.222" stroke="white" stroke-width="11.3861" stroke-miterlimit="10"/>
<path d="M224.332 95.7709L331.041 95.7246" stroke="white" stroke-width="11.3861" stroke-miterlimit="10"/>
<path d="M331.056 139.363L224.347 139.41L192.186 139.425" stroke="white" stroke-width="11.3861" stroke-miterlimit="10"/>
<path d="M224.378 205.743L258.742 205.728L286.683 177.789L286.668 139.387" stroke="white" stroke-width="11.3861" stroke-miterlimit="10"/>
<path d="M286.683 177.789L331.072 177.766" stroke="white" stroke-width="11.3861" stroke-miterlimit="10"/>
<path d="M258.742 205.728L258.765 265.466" stroke="white" stroke-width="11.3861" stroke-miterlimit="10"/>
<path d="M258.758 237.767L331.103 237.736" stroke="white" stroke-width="11.3861" stroke-miterlimit="10"/>
<path d="M272.26 51.3379L272.284 95.7482" stroke="white" stroke-width="11.3861" stroke-miterlimit="10"/>
<path d="M297.689 51.3223L297.713 95.7403" stroke="white" stroke-width="11.3861" stroke-miterlimit="10"/>
<path d="M257.451 98.4197C258.51 96.7363 259.129 94.7439 259.113 92.6049C259.082 86.6279 253.888 81.6548 247.906 81.8711C242.117 82.0796 237.487 86.8364 237.487 92.6744C237.487 94.7903 238.097 96.7672 239.156 98.4352L246.198 110.752C247.133 112.381 249.482 112.381 250.418 110.752L257.451 98.4197Z" fill="#9C82FF"/>
<path d="M248.3 88.3271L243.933 90.3272V98.0417H246.978V94.003H249.629L249.637 98.0417L252.682 98.0339L252.675 90.3272L248.3 88.3271Z" fill="white"/>
<path d="M295.834 237.103C296.893 235.42 297.512 233.428 297.496 231.289C297.465 225.312 292.271 220.338 286.289 220.555C280.5 220.763 275.87 225.52 275.87 231.358C275.87 233.474 276.481 235.451 277.539 237.119L284.581 249.436C285.516 251.065 287.866 251.065 288.801 249.436L295.834 237.103Z" fill="#9C82FF"/>
<path d="M286.683 227.019L282.308 229.019L282.316 236.725H285.361L285.354 232.687H288.012V236.725H291.058V229.011L286.683 227.019Z" fill="white"/>
<path d="M228.227 218.083C229.727 215.712 230.592 212.902 230.569 209.882C230.523 201.457 223.203 194.445 214.771 194.747C206.609 195.04 200.085 201.743 200.085 209.975C200.085 212.963 200.951 215.743 202.435 218.091L212.359 235.458C213.673 237.759 216.989 237.759 218.303 235.458L228.227 218.083Z" fill="#9C82FF"/>
<path d="M215.327 203.866L209.167 206.685L209.175 217.558H213.465V211.866L217.205 211.859V217.55H221.503L221.495 206.685L215.327 203.866Z" fill="white"/>
<path d="M207.938 42.0561L203.533 38.5656L207.93 35.0752" stroke="black" stroke-width="2.0093" stroke-miterlimit="10"/>
<path d="M314.616 35.0282L322.183 35.0205" stroke="black" stroke-width="2.0093" stroke-miterlimit="10"/>
<path d="M314.616 38.5185L322.183 38.5107" stroke="black" stroke-width="2.0093" stroke-miterlimit="10"/>
<path d="M314.616 42.0087L322.191 42.001" stroke="black" stroke-width="2.0093" stroke-miterlimit="10"/>
<path d="M238.322 38.9751C237.92 38.8593 237.595 38.7048 237.348 38.5195L237.781 37.5697C238.012 37.7396 238.291 37.8786 238.615 37.9867C238.94 38.0871 239.265 38.1411 239.581 38.1411C239.945 38.1411 240.207 38.0871 240.378 37.979C240.548 37.8709 240.633 37.7319 240.633 37.5542C240.633 37.423 240.578 37.3149 240.478 37.2299C240.378 37.145 240.246 37.0755 240.084 37.0214C239.922 36.9674 239.713 36.9133 239.442 36.8515C239.025 36.7511 238.685 36.6507 238.414 36.5581C238.152 36.4577 237.92 36.3032 237.726 36.0793C237.533 35.8631 237.44 35.5696 237.44 35.2067C237.44 34.8901 237.525 34.6044 237.696 34.3418C237.866 34.087 238.128 33.8785 238.476 33.7318C238.824 33.5773 239.249 33.5078 239.744 33.5078C240.092 33.5078 240.432 33.5464 240.764 33.6314C241.096 33.7163 241.39 33.8321 241.637 33.9866L241.251 34.9441C240.749 34.6584 240.238 34.5117 239.736 34.5117C239.38 34.5117 239.118 34.5658 238.948 34.6816C238.778 34.7974 238.693 34.9441 238.693 35.1372C238.693 35.3225 238.793 35.4615 238.986 35.5542C239.18 35.6469 239.481 35.7318 239.883 35.8245C240.3 35.9249 240.64 36.0252 240.911 36.1179C241.174 36.2183 241.406 36.3727 241.599 36.589C241.792 36.8052 241.885 37.0909 241.885 37.4539C241.885 37.7627 241.8 38.0485 241.622 38.311C241.444 38.5658 241.189 38.7743 240.834 38.9211C240.486 39.0755 240.061 39.145 239.558 39.145C239.149 39.1527 238.731 39.091 238.322 38.9751Z" fill="black"/>
<path d="M247.001 38.0408V39.0601H242.766V33.5928H246.901V34.6044H244.026V35.7936H246.569V36.7743H244.026V38.0408H247.001Z" fill="black"/>
<path d="M251.616 37.8785H249.073L248.586 39.0523H247.287L249.722 33.585H250.974L253.424 39.0523H252.095L251.616 37.8785ZM251.214 36.9209L250.348 34.8282L249.483 36.9209H251.214Z" fill="black"/>
<path d="M257.49 39.0445L256.431 37.5232H256.369H255.264V39.0445H253.996V33.5771H256.361C256.848 33.5771 257.266 33.6544 257.621 33.8165C257.977 33.9787 258.255 34.2026 258.448 34.5038C258.642 34.7973 258.734 35.1525 258.734 35.5618C258.734 35.971 258.634 36.3185 258.441 36.612C258.247 36.9054 257.969 37.1294 257.606 37.2915L258.835 39.0445H257.49ZM257.165 34.859C256.964 34.6969 256.678 34.6119 256.3 34.6119H255.264V36.5193H256.292C256.671 36.5193 256.964 36.4344 257.158 36.2722C257.359 36.1023 257.451 35.8706 257.451 35.5695C257.459 35.2606 257.366 35.0212 257.165 34.859Z" fill="black"/>
<path d="M260.852 38.774C260.404 38.5346 260.048 38.1948 259.786 37.7701C259.53 37.3377 259.399 36.8589 259.399 36.3106C259.399 35.7701 259.53 35.2836 259.786 34.8511C260.041 34.4187 260.396 34.0866 260.844 33.8395C261.293 33.6001 261.803 33.4766 262.367 33.4766C262.839 33.4766 263.271 33.5615 263.65 33.7237C264.037 33.8936 264.353 34.1329 264.616 34.4418L263.805 35.1909C263.434 34.7662 262.978 34.5499 262.429 34.5499C262.089 34.5499 261.787 34.6272 261.525 34.7739C261.262 34.9206 261.053 35.1291 260.906 35.3917C260.759 35.6542 260.682 35.9631 260.682 36.2952C260.682 36.6349 260.759 36.9361 260.906 37.1987C261.053 37.4612 261.262 37.6697 261.525 37.8164C261.787 37.9632 262.089 38.0404 262.429 38.0404C262.978 38.0404 263.434 37.8242 263.805 37.3917L264.616 38.1408C264.353 38.4574 264.037 38.7045 263.65 38.8667C263.264 39.0365 262.831 39.1138 262.359 39.1138C261.811 39.1369 261.3 39.0211 260.852 38.774Z" fill="black"/>
<path d="M270.49 33.5771V39.0445H269.223V36.805H266.734V39.0445H265.466V33.5771H266.734V35.7316H269.223V33.5771H270.49Z" fill="black"/>
<path d="M271.789 33.5771H273.057V39.0445H271.789V33.5771Z" fill="black"/>
<path d="M279.371 33.5693V39.0366H278.328L275.599 35.7161V39.0366H274.347V33.5693H275.391L278.111 36.8899V33.5693H279.371Z" fill="black"/>
<path d="M284.372 36.2179H285.531V38.4341C285.238 38.6581 284.89 38.8279 284.503 38.9515C284.109 39.0751 283.723 39.1291 283.321 39.1291C282.757 39.1291 282.239 39.0056 281.79 38.7662C281.334 38.5268 280.979 38.187 280.724 37.7623C280.469 37.3298 280.337 36.8511 280.337 36.3028C280.337 35.7622 280.469 35.2757 280.724 34.8433C280.979 34.4109 281.342 34.0788 281.798 33.8317C282.254 33.5923 282.772 33.4688 283.344 33.4688C283.823 33.4688 284.256 33.546 284.65 33.7081C285.044 33.8703 285.369 34.102 285.632 34.4109L284.82 35.1599C284.426 34.7506 283.955 34.5421 283.406 34.5421C283.058 34.5421 282.749 34.6194 282.478 34.7584C282.208 34.9051 281.999 35.1136 281.845 35.3761C281.69 35.6387 281.62 35.9476 281.62 36.2874C281.62 36.6271 281.698 36.9283 281.845 37.1908C281.999 37.4534 282.208 37.6619 282.471 37.8086C282.741 37.9553 283.043 38.0326 283.39 38.0326C283.754 38.0326 284.086 37.9553 284.372 37.8009V36.2179Z" fill="black"/>
<path d="M381.172 94.0784C381.033 95.6228 380.701 97.0978 380.198 98.4878C379.31 100.99 377.88 103.221 376.071 105.052C372.415 108.758 367.19 110.859 361.594 110.349C351.693 109.446 344.397 100.689 345.301 90.7964C346.205 80.9043 354.97 73.6146 364.871 74.5181C374.788 75.4293 382.077 84.1863 381.172 94.0784Z" stroke="#454056" stroke-width="3" stroke-miterlimit="10"/>
<path d="M400.658 111.971C409.948 108.828 415.838 100.234 415.985 90.967L459.902 76.1017C460.311 75.9627 460.636 75.6539 460.798 75.26L463.851 67.7927C464.13 67.1131 463.867 66.3255 463.225 65.9548L456.254 61.8852C455.883 61.669 455.434 61.6226 455.032 61.7616L449.606 63.5995C449.235 63.7231 448.926 63.9934 448.756 64.3486L447.087 67.7232C446.723 68.4568 445.835 68.7579 445.1 68.395L442.72 67.2212C441.985 66.8583 441.097 67.1594 440.733 67.8931L439.559 70.2715C439.195 71.0051 438.306 71.3063 437.572 70.9433L434.202 69.2753C433.847 69.0977 433.445 69.0746 433.074 69.1981L429.472 70.4182C429.101 70.5418 428.792 70.812 428.622 71.1673L426.952 74.5419C426.589 75.2755 425.7 75.5766 424.966 75.2137L421.039 73.2754L421.001 73.2909L419.756 69.6151C419.447 68.7116 418.381 68.3332 417.569 68.8352L408.889 74.2175C403.007 68.6884 394.343 66.5031 386.165 69.2676C374.355 73.2677 368.033 86.0711 372.029 97.8629C376.032 109.647 388.847 115.971 400.658 111.971ZM381.814 88.4881C384.813 87.4688 388.074 89.0827 389.087 92.079C390.107 95.0752 388.492 98.3339 385.493 99.3455C382.494 100.365 379.232 98.7509 378.22 95.7547C377.199 92.7585 378.807 89.4997 381.814 88.4881Z" fill="#454056"/>
<path d="M394.899 87.7618C402.381 81.4296 404.7 71.2672 401.43 62.5952L436.807 32.6408C437.132 32.3628 437.325 31.9612 437.333 31.5288L437.425 23.4591C437.433 22.7255 436.9 22.0923 436.165 21.9764L428.181 20.7486C427.756 20.6868 427.323 20.8027 426.999 21.0807L422.632 24.7796C422.33 25.0344 422.145 25.3974 422.114 25.7912L421.805 29.5365C421.735 30.355 421.024 30.9574 420.205 30.8879L417.561 30.6716C416.742 30.6021 416.031 31.2122 415.961 32.023L415.745 34.664C415.675 35.4826 414.964 36.0849 414.145 36.0154L410.396 35.7065C410.002 35.6756 409.616 35.7992 409.314 36.054L406.416 38.5097C406.114 38.7645 405.929 39.1274 405.898 39.5213L405.589 43.2665C405.519 44.0851 404.808 44.6874 403.989 44.6179L399.63 44.255L399.599 44.2859L397.087 41.3283C396.468 40.6024 395.332 40.641 394.768 41.4055L388.677 49.5987C381.172 46.618 372.315 47.7608 365.722 53.344C356.215 61.3982 355.032 75.6302 363.094 85.1285C371.148 94.6423 385.385 95.816 394.899 87.7618ZM368.736 72.8425C371.155 70.7961 374.773 71.0973 376.821 73.5066C378.869 75.9237 378.568 79.5377 376.156 81.584C373.737 83.6304 370.12 83.3293 368.071 80.9199C366.015 78.5029 366.317 74.8889 368.736 72.8425Z" fill="#454056"/>
<path d="M373.358 126.334L359.059 93.7077C358.943 93.4451 358.704 93.2598 358.425 93.2134L323.25 87.4295C322.941 87.3755 322.631 87.499 322.446 87.7461L291.437 127.616C291.151 127.986 291.22 128.512 291.583 128.797L307.413 141.091C307.784 141.377 308.309 141.307 308.595 140.944L328.544 115.299C328.83 114.928 329.364 114.866 329.727 115.152L344.868 126.905C345.239 127.191 345.301 127.724 345.015 128.087L325.066 153.732C324.78 154.103 324.85 154.628 325.213 154.914L341.042 167.207C341.413 167.493 341.939 167.424 342.225 167.061L373.234 127.191C373.443 126.952 373.482 126.62 373.358 126.334ZM345.61 110.349C343.106 108.403 342.658 104.804 344.598 102.302C346.546 99.8005 350.147 99.3526 352.652 101.291C355.156 103.237 355.604 106.835 353.664 109.337C351.724 111.839 348.115 112.295 345.61 110.349Z" fill="#454056"/>
<path d="M250.228 250.114C269.633 230.727 269.633 199.293 250.228 179.905C230.822 160.517 199.36 160.517 179.955 179.905C160.55 199.293 160.55 230.727 179.955 250.114C199.36 269.502 230.822 269.502 250.228 250.114Z" stroke="#454056" stroke-width="15" stroke-miterlimit="10"/>
<path d="M168.311 231.735L132.71 244.462" stroke="#454056" stroke-width="15" stroke-miterlimit="10"/>
<path d="M132.71 244.461L72.6698 265.921" stroke="#9C82FF" stroke-width="24" stroke-miterlimit="10" stroke-linecap="round" stroke-linejoin="round"/>
<path d="M41.4247 137.137L40.1703 136.886L41.6065 129.719L44.3405 130.266C45.1544 130.429 45.7487 130.752 46.1233 131.235C46.4978 131.718 46.6145 132.313 46.4731 133.018C46.3772 133.497 46.1852 133.883 45.8971 134.177C45.6091 134.472 45.2371 134.663 44.7812 134.751L45.5519 137.963L44.1826 137.689L43.5027 134.769L41.961 134.461L41.4247 137.137ZM42.6374 131.085L42.1836 133.35L43.6631 133.646C44.0621 133.726 44.3915 133.689 44.6514 133.535C44.9152 133.379 45.0835 133.118 45.1564 132.755C45.2281 132.397 45.1717 132.099 44.9872 131.859C44.806 131.62 44.5159 131.461 44.1169 131.381L42.6374 131.085ZM48.3605 138.659C47.6391 138.515 47.0978 138.159 46.7367 137.592C46.3755 137.025 46.2701 136.367 46.4204 135.617C46.5727 134.857 46.9199 134.284 47.462 133.898C48.0042 133.512 48.6312 133.39 49.343 133.532C50.0676 133.677 50.5987 134.017 50.9362 134.553C51.2776 135.086 51.3725 135.731 51.2209 136.487L51.1489 136.846L47.4976 136.131C47.4124 137.004 47.7719 137.52 48.5763 137.681C48.9019 137.746 49.1825 137.738 49.4181 137.655C49.6537 137.573 49.8297 137.424 49.9459 137.208L51.052 137.43C50.8436 137.939 50.5 138.303 50.0211 138.523C49.546 138.74 48.9925 138.785 48.3605 138.659ZM49.1569 134.511C48.8058 134.441 48.5044 134.478 48.2528 134.624C48.0044 134.77 47.8134 135.019 47.6798 135.371L50.1121 135.857C50.1793 135.522 50.1261 135.233 49.9525 134.989C49.7796 134.742 49.5144 134.582 49.1569 134.511ZM52.8727 139.427L51.6757 139.188L52.6467 134.343L53.7527 134.564L53.7275 135.211C53.9262 134.998 54.1762 134.853 54.4776 134.773C54.7828 134.692 55.1013 134.684 55.4333 134.751C56.0334 134.871 56.4547 135.137 56.6971 135.551C56.9428 135.965 57.002 136.49 56.8747 137.125L56.2769 140.108L55.0799 139.869L55.6201 137.173C55.6994 136.777 55.6686 136.459 55.5276 136.218C55.3898 135.978 55.1613 135.826 54.8421 135.763C54.475 135.689 54.1612 135.748 53.9006 135.938C53.6432 136.129 53.4749 136.422 53.3956 136.818L52.8727 139.427ZM59.097 140.672L57.9001 140.433L58.6705 136.588L57.7416 136.402L57.9421 135.402L58.871 135.588L59.1732 134.08L60.3702 134.319L60.068 135.827L61.0112 136.016L60.8107 137.016L59.8675 136.828L59.097 140.672ZM62.8776 141.563C62.1562 141.419 61.6149 141.063 61.2538 140.496C60.8926 139.929 60.7872 139.271 60.9375 138.521C61.0897 137.761 61.4369 137.188 61.9791 136.802C62.5213 136.416 63.1483 136.294 63.8601 136.436C64.5847 136.581 65.1157 136.921 65.4533 137.457C65.7947 137.99 65.8895 138.635 65.738 139.391L65.666 139.75L62.0147 139.035C61.9295 139.908 62.289 140.424 63.0934 140.585C63.419 140.65 63.6996 140.642 63.9352 140.559C64.1708 140.477 64.3468 140.328 64.463 140.112L65.5691 140.333C65.3607 140.843 65.0171 141.207 64.5382 141.427C64.0631 141.644 63.5096 141.689 62.8776 141.563ZM63.674 137.415C63.3228 137.345 63.0215 137.382 62.7699 137.528C62.5215 137.674 62.3305 137.923 62.1969 138.275L64.6292 138.761C64.6964 138.426 64.6432 138.137 64.4696 137.893C64.2967 137.646 64.0315 137.486 63.674 137.415ZM68.1587 142.619C67.4628 142.48 66.9557 142.136 66.6373 141.588C66.3222 141.04 66.2404 140.388 66.3919 139.632C66.5455 138.866 66.8809 138.285 67.3981 137.891C67.9154 137.496 68.5332 137.371 69.2514 137.515C69.5897 137.582 69.8859 137.711 70.1399 137.902C70.3971 138.092 70.5768 138.323 70.6788 138.592L71.2938 135.523L72.4812 135.761L71.0191 143.057L69.9178 142.837L69.9928 142.065C69.7935 142.314 69.5298 142.487 69.2016 142.584C68.8766 142.682 68.529 142.693 68.1587 142.619ZM68.6427 141.571C69.0576 141.654 69.4168 141.585 69.7201 141.363C70.0267 141.142 70.2238 140.813 70.3114 140.376C70.399 139.939 70.3442 139.557 70.1471 139.233C69.9531 138.908 69.6487 138.705 69.2337 138.622C68.8219 138.539 68.4673 138.611 68.1697 138.837C67.8721 139.063 67.6795 139.395 67.5918 139.832C67.5042 140.269 67.5545 140.648 67.7427 140.967C67.9309 141.287 68.2309 141.488 68.6427 141.571Z" fill="#9C82FF"/>
</svg>
