<svg width="35" height="32" viewBox="0 0 35 32" fill="none" xmlns="http://www.w3.org/2000/svg">
<ellipse cx="17.2717" cy="15.9615" rx="16.8141" ry="15.9615" fill="#9C82FF"/>
<path d="M17.7395 24.299C15.3626 24.299 15.0824 24.2871 14.1548 24.2486C13.4315 24.226 12.7175 24.0864 12.0436 23.8358C11.4669 23.6228 10.9432 23.2983 10.5058 22.8828C10.0683 22.4674 9.72661 21.9701 9.50242 21.4226C9.24859 20.7806 9.11169 20.1022 9.09757 19.4166C9.04346 18.5379 9.04346 18.2499 9.04346 16.0109C9.04346 13.7481 9.05602 13.484 9.09757 12.608C9.112 11.9233 9.2489 11.2459 9.50242 10.6048C9.72636 10.0566 10.0683 9.55875 10.5063 9.14307C10.9444 8.72739 11.4689 8.403 12.0465 8.19063C12.7215 7.94866 13.4353 7.81836 14.1567 7.80539C15.0795 7.75586 15.3829 7.75586 17.7395 7.75586C20.1358 7.75586 20.4111 7.76778 21.3242 7.80539C22.047 7.81823 22.7639 7.94848 23.4403 8.19063C24.0177 8.40325 24.5421 8.72772 24.9801 9.14337C25.4181 9.55902 25.7601 10.0567 25.9843 10.6048C26.2423 11.256 26.3805 11.9439 26.3911 12.6383C26.4452 13.517 26.4452 13.8041 26.4452 16.0421C26.4452 18.2802 26.4317 18.5737 26.3911 19.4423C26.3767 20.1286 26.2395 20.8075 25.9853 21.4501C25.7605 21.998 25.4182 22.4955 24.9801 22.9111C24.542 23.3267 24.0176 23.6513 23.4403 23.8643C22.7639 24.1046 22.0499 24.2348 21.3281 24.2486C20.4053 24.299 20.1029 24.299 17.7395 24.299ZM17.7067 9.20784C15.3433 9.20784 15.0978 9.21884 14.1751 9.25828C13.624 9.26512 13.0782 9.36161 12.5615 9.54354C12.1846 9.68068 11.8422 9.89128 11.5562 10.1617C11.2703 10.4322 11.0473 10.7565 10.9015 11.1138C10.7083 11.6091 10.6068 12.1329 10.601 12.6612C10.5498 13.55 10.5498 13.783 10.5498 16.0109C10.5498 18.2123 10.5585 18.4792 10.601 19.3625C10.6097 19.8853 10.7112 20.4036 10.9015 20.8943C11.1972 21.6161 11.8001 22.1867 12.5625 22.4637C13.0785 22.6467 13.6242 22.7433 14.1751 22.7489C15.1104 22.8003 15.3568 22.8003 17.7067 22.8003C20.0768 22.8003 20.3222 22.7893 21.2373 22.7489C21.7884 22.7426 22.3343 22.6461 22.8509 22.4637C23.2257 22.3255 23.5662 22.1147 23.8507 21.8449C24.1351 21.575 24.3573 21.2519 24.5031 20.8961C24.6964 20.4008 24.7978 19.8762 24.8036 19.3478H24.8142C24.8558 18.471 24.8558 18.2371 24.8558 15.9963C24.8558 13.7555 24.8452 13.5197 24.8036 12.6438C24.7949 12.1214 24.6933 11.6041 24.5031 11.1138C24.3577 10.7575 24.1356 10.4339 23.8512 10.1635C23.5667 9.89319 23.226 9.68204 22.8509 9.54354C22.3344 9.36072 21.7884 9.26421 21.2373 9.25828C20.3029 9.20784 20.0585 9.20784 17.7067 9.20784ZM17.7395 20.2476C16.856 20.2482 15.9921 20 15.2572 19.5344C14.5222 19.0688 13.9492 18.4068 13.6107 17.6321C13.2721 16.8574 13.1832 16.0048 13.3551 15.182C13.5271 14.3593 13.9522 13.6035 14.5767 13.0102C15.2012 12.4168 15.997 12.0126 16.8635 11.8487C17.73 11.6848 18.6283 11.7684 19.4447 12.0892C20.2611 12.4099 20.9589 12.9532 21.45 13.6505C21.9411 14.3478 22.2033 15.1676 22.2035 16.0064C22.202 17.1301 21.7313 18.2075 20.8946 19.0025C20.0578 19.7975 18.9233 20.2452 17.7395 20.2476ZM17.7395 13.2528C17.1662 13.2528 16.6058 13.4142 16.1291 13.7166C15.6524 14.0189 15.2809 14.4487 15.0615 14.9515C14.8421 15.4543 14.7847 16.0076 14.8965 16.5414C15.0084 17.0751 15.2844 17.5654 15.6898 17.9503C16.0952 18.3351 16.6117 18.5972 17.174 18.7033C17.7363 18.8095 18.3191 18.755 18.8488 18.5468C19.3785 18.3385 19.8312 17.9858 20.1497 17.5333C20.4682 17.0808 20.6382 16.5488 20.6382 16.0045C20.6364 15.2752 20.3304 14.5763 19.7872 14.0607C19.244 13.545 18.5077 13.2545 17.7395 13.2528ZM22.3774 12.5988C22.2406 12.5984 22.1053 12.5723 21.9791 12.5222C21.8529 12.472 21.7384 12.3988 21.642 12.3066C21.4474 12.1205 21.3387 11.8686 21.3397 11.6064C21.3407 11.3442 21.4514 11.093 21.6475 10.9083C21.8436 10.7236 22.1089 10.6203 22.3851 10.6213C22.6614 10.6223 22.9259 10.7274 23.1205 10.9135C23.3151 11.0996 23.4239 11.3515 23.4229 11.6137C23.4218 11.876 23.3111 12.1271 23.1151 12.3118C22.919 12.4966 22.6537 12.5998 22.3774 12.5988Z" fill="white"/>
</svg>
