<svg width="35" height="33" viewBox="0 0 35 33" fill="none" xmlns="http://www.w3.org/2000/svg">
<ellipse cx="17.7284" cy="16.3619" rx="16.8141" ry="15.9615" fill="#9C82FF"/>
<path fill-rule="evenodd" clip-rule="evenodd" d="M16.0015 12.7268H18.9358V14.1143C19.3584 13.3163 20.4424 12.5993 22.0707 12.5993C25.1923 12.5993 25.9334 14.1878 25.9334 17.1023V22.5H22.7731V17.766C22.7731 16.1062 22.3504 15.1702 21.2743 15.1702C19.7819 15.1702 19.1617 16.179 19.1617 17.7653V22.5H16.0015V12.7268ZM10.5824 22.3725H13.7427V12.5993H10.5824V22.3725ZM14.1954 9.4125C14.1955 9.66396 14.143 9.91293 14.0408 10.1449C13.9387 10.377 13.789 10.5874 13.6005 10.764C13.2184 11.1245 12.7012 11.3262 12.1625 11.325C11.6248 11.3247 11.1088 11.1234 10.7262 10.7648C10.5383 10.5875 10.3892 10.3769 10.2872 10.1448C10.1853 9.91278 10.1325 9.66392 10.1321 9.4125C10.1321 8.90475 10.3454 8.41875 10.727 8.06025C11.1093 7.70112 11.6255 7.49978 12.1633 7.5C12.7022 7.5 13.2189 7.70175 13.6005 8.06025C13.9813 8.41875 14.1954 8.90475 14.1954 9.4125Z" fill="white"/>
</svg>
