<svg width="28" height="24" viewBox="0 0 28 24" fill="none" xmlns="http://www.w3.org/2000/svg">
<path d="M13.5417 13C15.4114 13 16.9271 11.6569 16.9271 10C16.9271 8.34315 15.4114 7 13.5417 7C11.672 7 10.1562 8.34315 10.1562 10C10.1562 11.6569 11.672 13 13.5417 13Z" stroke="white" stroke-width="2" stroke-linecap="round" stroke-linejoin="round"/>
<path d="M13.5417 2C11.1474 2 8.85113 2.84285 7.15809 4.34315C5.46505 5.84344 4.51392 7.87827 4.51392 10C4.51392 11.892 4.96756 13.13 6.20662 14.5L13.5417 22L20.8768 14.5C22.1158 13.13 22.5695 11.892 22.5695 10C22.5695 7.87827 21.6183 5.84344 19.9253 4.34315C18.2323 2.84285 15.936 2 13.5417 2V2Z" stroke="white" stroke-width="2" stroke-linecap="round" stroke-linejoin="round"/>
</svg>
