<svg width="279" height="76" viewBox="0 0 279 76" fill="none" xmlns="http://www.w3.org/2000/svg">
<g clip-path="url(#clip0_194_697)">
<path d="M72.491 61.6348L81.9119 19.4921C82.2002 18.2182 81.2237 17 79.9217 17H70.2776C69.3197 17 68.492 17.6602 68.2874 18.5994L55.9463 73.807C55.658 75.081 56.6345 76.2992 57.9365 76.2992H85.4645C86.4224 76.2992 87.2501 75.6389 87.4547 74.6997L89.5565 65.3078C89.8448 64.0339 88.8683 62.8157 87.5663 62.8157H73.4396C72.8165 62.8157 72.3515 62.2392 72.491 61.6348Z" fill="#9C82FF"/>
<path d="M56.2625 28.6517H50.3663C49.055 28.6517 48.0878 27.4429 48.3761 26.1596L49.6595 20.4129C49.8641 19.483 50.7011 18.8135 51.6497 18.8135H57.5459C58.8572 18.8135 59.8244 20.0223 59.5361 21.3056L58.262 27.0616C58.0481 27.9915 57.2204 28.6517 56.2625 28.6517Z" fill="url(#paint0_linear_194_697)"/>
<path d="M52.8494 43.93H46.9532C45.6419 43.93 44.6747 42.7212 44.963 41.4379L46.2464 35.6912C46.451 34.7613 47.288 34.0918 48.2366 34.0918H54.1328C55.4441 34.0918 56.4113 35.3007 56.123 36.5839L54.8489 42.3306C54.635 43.2605 53.8073 43.93 52.8494 43.93Z" fill="url(#paint1_linear_194_697)"/>
<path d="M49.4363 59.1986H43.5401C42.2288 59.1986 41.2616 57.9897 41.5499 56.7065L42.8333 50.9598C43.0379 50.0299 43.8749 49.3604 44.8235 49.3604H50.7197C52.031 49.3604 52.9982 50.5692 52.7099 51.8525L51.4265 57.5992C51.2219 58.5384 50.3942 59.1986 49.4363 59.1986Z" fill="url(#paint2_linear_194_697)"/>
<path d="M46.0232 74.4769H40.127C38.8157 74.4769 37.8485 73.2681 38.1368 71.9848L39.4202 66.2381C39.6248 65.3082 40.4618 64.6387 41.4104 64.6387H47.3066C48.6179 64.6387 49.5851 65.8475 49.2968 67.1308L48.0134 72.8775C47.8088 73.8074 46.9811 74.4769 46.0232 74.4769Z" fill="url(#paint3_linear_194_697)"/>
<path d="M37.5788 27.0799H34.919C33.6077 27.0799 32.6405 25.8711 32.9288 24.5878L33.5054 22.0027C33.71 21.0728 34.547 20.4033 35.4956 20.4033H38.1554C39.4667 20.4033 40.4339 21.6122 40.1456 22.8954L39.569 25.4805C39.3644 26.4104 38.5367 27.0799 37.5788 27.0799Z" fill="url(#paint4_linear_194_697)"/>
<path d="M34.1657 42.3485H31.5059C30.1946 42.3485 29.2274 41.1396 29.5157 39.8564L30.0923 37.2713C30.2969 36.3414 31.1339 35.6719 32.0825 35.6719H34.7423C36.0536 35.6719 37.0208 36.8807 36.7325 38.164L36.1559 40.7491C35.9513 41.6883 35.1236 42.3485 34.1657 42.3485Z" fill="url(#paint5_linear_194_697)"/>
<path d="M30.7526 57.618H28.0928C26.7815 57.618 25.8143 56.4092 26.1026 55.1259L26.6792 52.5408C26.8838 51.6109 27.7208 50.9414 28.6694 50.9414H31.3292C32.6405 50.9414 33.6077 52.1503 33.3194 53.4335L32.7428 56.0186C32.5382 56.9578 31.7105 57.618 30.7526 57.618Z" fill="url(#paint6_linear_194_697)"/>
<path d="M27.3396 72.8954H24.6798C23.3685 72.8954 22.4013 71.6865 22.6896 70.4033L23.2662 67.8182C23.4708 66.8883 24.3078 66.2188 25.2564 66.2188H27.9162C29.2275 66.2188 30.1947 67.4276 29.9064 68.7109L29.3298 71.296C29.1252 72.2259 28.2975 72.8954 27.3396 72.8954Z" fill="url(#paint7_linear_194_697)"/>
<path d="M22.2895 25.778C20.9782 25.778 20.0017 24.5692 20.29 23.2859C20.4946 22.356 21.3316 21.6865 22.2802 21.6865C23.5915 21.6865 24.5587 22.8954 24.2704 24.1786C24.0751 25.1178 23.2381 25.778 22.2895 25.778Z" fill="url(#paint8_linear_194_697)"/>
<path d="M18.8764 41.0564C17.5651 41.0564 16.5886 39.8475 16.8769 38.5643C17.0815 37.6344 17.9185 36.9648 18.8671 36.9648C20.1784 36.9648 21.1456 38.1737 20.8573 39.457C20.662 40.3961 19.825 41.0564 18.8764 41.0564Z" fill="url(#paint9_linear_194_697)"/>
<path d="M15.4633 56.3249C14.152 56.3249 13.1755 55.1161 13.4638 53.8328C13.6684 52.9029 14.5054 52.2334 15.454 52.2334C16.7653 52.2334 17.7325 53.4423 17.4442 54.7255C17.2489 55.6647 16.4212 56.3249 15.4633 56.3249Z" fill="url(#paint10_linear_194_697)"/>
<path d="M12.0503 71.6032C10.739 71.6032 9.76246 70.3944 10.0508 69.1111C10.2554 68.1812 11.0924 67.5117 12.041 67.5117C13.3523 67.5117 14.3195 68.7206 14.0312 70.0038C13.8359 70.9337 13.0082 71.6032 12.0503 71.6032Z" fill="url(#paint11_linear_194_697)"/>
<path d="M119.605 42.6745L118.675 47.3147H103.423L108.538 21.7334H113.802L109.598 42.6745H119.605Z" fill="white"/>
<path d="M145.124 27.5735L141.181 47.3058H137.414L137.294 45.4739C135.396 46.9524 133.034 47.8451 130.439 47.8451C125.213 47.8451 121.642 44.0791 121.642 39.0484C121.642 32.4926 126.887 27.0342 133.62 27.0342C136.336 27.0342 138.577 28.1408 140.056 29.9633L141.19 27.5735H145.124ZM138.065 36.175C138.065 33.5434 136.215 31.8045 133.434 31.8045C129.891 31.8045 126.812 35.0312 126.812 38.695C126.812 41.3266 128.617 43.0469 131.388 43.0469C134.95 43.0469 138.065 39.8202 138.065 36.175Z" fill="white"/>
<path d="M167.388 33.3575C167.388 35.0034 167.137 35.8217 164.831 47.3152H159.753C161.929 36.4354 162.134 35.7473 162.134 34.7988C162.134 32.7903 161.139 31.7674 159.176 31.7674C156.424 31.7674 154.285 33.7481 153.578 36.8539L151.485 47.3245H146.407L150.351 27.5922H153.847L154.312 29.9913C156.117 28.178 158.656 27.0528 161.38 27.0528C165.193 27.0342 167.388 29.5356 167.388 33.3575Z" fill="white"/>
<path d="M194.795 20.4688L189.42 47.3054H185.793L185.458 45.4642C183.514 46.9334 181.18 47.8261 178.762 47.8261C173.842 47.8261 170.299 44.1624 170.299 39.1038C170.299 32.4922 175.628 27.0338 182.38 27.0338C184.658 27.0338 186.565 27.8428 187.969 29.1818L189.717 20.478H194.795V20.4688ZM186.714 36.3327C186.714 33.636 184.863 31.832 182.008 31.832C178.492 31.832 175.498 34.9843 175.498 38.5365C175.498 41.2332 177.358 43.0279 180.213 43.0279C183.71 43.0279 186.714 39.9407 186.714 36.3327Z" fill="white"/>
<path d="M200.022 20.4688H205.1L199.724 47.3054H194.646L200.022 20.4688Z" fill="white"/>
<path d="M205.462 39.0112C205.462 32.409 210.912 27.0342 217.692 27.0342C223.095 27.0342 226.815 30.8188 226.815 35.8681C226.815 42.4425 221.347 47.8451 214.586 47.8451C209.173 47.8544 205.462 44.0326 205.462 39.0112ZM221.654 36.1285C221.654 33.5155 219.933 31.8138 217.208 31.8138C213.442 31.8138 210.605 35.087 210.605 38.7601C210.605 41.3731 212.326 43.0748 215.051 43.0748C218.836 43.0748 221.654 39.7923 221.654 36.1285Z" fill="white"/>
<path d="M244.336 27.4712L243.369 32.2602H241.091C238.143 32.2602 236.571 33.5899 235.864 36.5655L233.716 47.3058H228.638L232.581 27.5735H235.864L236.245 29.8703C238.022 28.2244 240.105 27.4619 242.588 27.4619H244.336V27.4712Z" fill="white"/>
<path d="M268.219 20.4688L262.843 47.3054H259.207L258.872 45.4642C256.929 46.9334 254.594 47.8261 252.176 47.8261C247.257 47.8261 243.713 44.1624 243.713 39.1038C243.713 32.4922 249.042 27.0338 255.794 27.0338C258.073 27.0338 259.979 27.8428 261.383 29.1818L263.132 20.478H268.219V20.4688ZM260.128 36.3327C260.128 33.636 258.277 31.832 255.422 31.832C251.907 31.832 248.912 34.9843 248.912 38.5365C248.912 41.2332 250.772 43.0279 253.627 43.0279C257.124 43.0279 260.128 39.9407 260.128 36.3327Z" fill="white"/>
<path d="M123.334 72.7846C120.051 72.7846 117.68 71.0086 117.68 68.2189C117.68 67.9027 117.708 67.5866 117.763 67.2704H121.632C121.604 67.4099 121.595 67.5494 121.595 67.6795C121.595 68.8512 122.609 69.4463 123.948 69.4463C125.343 69.4463 126.719 68.7582 126.719 67.475C126.719 66.4521 125.408 66.1731 123.873 65.9035C121.716 65.5036 119.14 64.9922 119.14 62.1932C119.14 58.4736 122.265 56.3721 126.236 56.3721C129.584 56.3721 131.695 58.2133 131.695 60.6775C131.695 60.9471 131.667 61.2354 131.611 61.533H127.854C127.872 61.4028 127.891 61.2726 127.891 61.161C127.891 60.1474 127.101 59.5988 125.733 59.5988C124.218 59.5988 123.111 60.3427 123.111 61.4214C123.111 62.4257 124.422 62.6767 125.966 62.965C128.133 63.3555 130.774 63.8763 130.774 66.7032C130.755 70.5994 127.5 72.7846 123.334 72.7846Z" fill="#9C82FF"/>
<path d="M142.799 60.3889C141.674 65.9682 141.59 66.3402 141.59 66.7307C141.59 67.9768 142.38 68.6463 143.822 68.6463H145.617L144.882 72.3566H142.613C139.395 72.3566 137.479 70.5898 137.479 67.7071C137.479 66.833 137.628 66.21 138.791 60.3889H135.917L136.094 59.5334L143.571 52.7266H144.343L143.534 56.7902H147.933L147.216 60.3982H142.799V60.3889Z" fill="#9C82FF"/>
<path d="M162.915 56.6973L162.152 60.4819H160.357C158.023 60.4819 156.796 61.5327 156.238 63.8853L154.536 72.3566H150.527L153.643 56.7903H156.238L156.535 58.6035C157.939 57.3017 159.586 56.7066 161.539 56.7066H162.915V56.6973Z" fill="#9C82FF"/>
<path d="M168.988 65.7361C168.988 65.8012 168.988 65.8663 168.988 65.9406C168.988 68.0701 170.225 69.2046 172.401 69.2046C173.982 69.2046 175.396 68.4699 176.27 67.289H180.576C178.771 70.7668 175.675 72.7939 171.917 72.7939C167.909 72.7939 165.166 69.7811 165.166 65.8942C165.166 60.6961 169.072 56.3721 174.521 56.3721C178.623 56.3721 181.422 59.4407 181.422 63.2533C181.441 64.1739 181.273 64.955 181.059 65.7454L168.988 65.7361ZM174.242 59.8034C172.131 59.8034 170.522 61.1238 169.667 62.9092H177.665C177.469 60.9006 176.242 59.8034 174.242 59.8034Z" fill="#9C82FF"/>
<path d="M204.467 56.7813L201.352 72.3476H198.376L198.273 70.9063C196.776 72.078 194.916 72.7847 192.861 72.7847C188.732 72.7847 185.923 69.8183 185.923 65.8384C185.923 60.6682 190.062 56.3535 195.372 56.3535C197.52 56.3535 199.287 57.2276 200.45 58.6689L201.342 56.7813H204.467ZM198.897 63.5695C198.897 61.4958 197.437 60.1196 195.242 60.1196C192.442 60.1196 190.015 62.6675 190.015 65.5501C190.015 67.6238 191.438 68.9814 193.623 68.9814C196.451 68.9907 198.897 66.4428 198.897 63.5695Z" fill="#9C82FF"/>
<path d="M233.483 61.1048C233.465 62.1556 233.288 62.8065 231.4 72.3472H227.373C229.103 63.7736 229.308 62.9739 229.308 62.2114C229.308 60.8258 228.647 60.0726 227.336 60.0726C225.476 60.0726 224.007 61.4767 223.467 63.848C223.151 65.4567 222.621 68.0325 221.756 72.3472H217.85C219.598 63.6155 219.784 62.9553 219.784 62.2114C219.784 60.8909 219.161 60.0726 217.85 60.0726C215.971 60.0726 214.465 61.4767 213.944 63.8387L212.242 72.3472H208.234L211.349 56.7808H214.158L214.474 58.5383C215.804 57.1899 217.655 56.3438 219.664 56.3438C221.561 56.3438 222.984 57.3201 223.607 58.8545C224.918 57.3108 226.88 56.3438 229.112 56.3438C231.772 56.353 233.483 58.3058 233.483 61.1048Z" fill="#9C82FF"/>
</g>
<defs>
<linearGradient id="paint0_linear_194_697" x1="12.0175" y1="23.7397" x2="51.7086" y2="23.7397" gradientUnits="userSpaceOnUse">
<stop offset="0.00188079" stop-color="#6E49FD"/>
<stop offset="1" stop-color="#9C82FF"/>
</linearGradient>
<linearGradient id="paint1_linear_194_697" x1="12.0175" y1="39.0127" x2="51.7086" y2="39.0127" gradientUnits="userSpaceOnUse">
<stop offset="0.00188079" stop-color="#6E49FD"/>
<stop offset="1" stop-color="#9C82FF"/>
</linearGradient>
<linearGradient id="paint2_linear_194_697" x1="12.0175" y1="54.2852" x2="51.7086" y2="54.2852" gradientUnits="userSpaceOnUse">
<stop offset="0.00188079" stop-color="#6E49FD"/>
<stop offset="1" stop-color="#9C82FF"/>
</linearGradient>
<linearGradient id="paint3_linear_194_697" x1="12.0175" y1="69.5582" x2="51.7086" y2="69.5582" gradientUnits="userSpaceOnUse">
<stop offset="0.00188079" stop-color="#6E49FD"/>
<stop offset="1" stop-color="#9C82FF"/>
</linearGradient>
<linearGradient id="paint4_linear_194_697" x1="12.0175" y1="23.7394" x2="51.7086" y2="23.7394" gradientUnits="userSpaceOnUse">
<stop offset="0.00188079" stop-color="#6E49FD"/>
<stop offset="1" stop-color="#9C82FF"/>
</linearGradient>
<linearGradient id="paint5_linear_194_697" x1="12.0175" y1="39.0119" x2="51.7086" y2="39.0119" gradientUnits="userSpaceOnUse">
<stop offset="0.00188079" stop-color="#6E49FD"/>
<stop offset="1" stop-color="#9C82FF"/>
</linearGradient>
<linearGradient id="paint6_linear_194_697" x1="12.0175" y1="54.2855" x2="51.7087" y2="54.2855" gradientUnits="userSpaceOnUse">
<stop offset="0.00188079" stop-color="#6E49FD"/>
<stop offset="1" stop-color="#9C82FF"/>
</linearGradient>
<linearGradient id="paint7_linear_194_697" x1="12.0175" y1="69.5575" x2="51.7087" y2="69.5575" gradientUnits="userSpaceOnUse">
<stop offset="0.00188079" stop-color="#6E49FD"/>
<stop offset="1" stop-color="#9C82FF"/>
</linearGradient>
<linearGradient id="paint8_linear_194_697" x1="12.0174" y1="23.7394" x2="51.7085" y2="23.7394" gradientUnits="userSpaceOnUse">
<stop offset="0.00188079" stop-color="#6E49FD"/>
<stop offset="1" stop-color="#9C82FF"/>
</linearGradient>
<linearGradient id="paint9_linear_194_697" x1="12.0174" y1="39.0124" x2="51.7085" y2="39.0124" gradientUnits="userSpaceOnUse">
<stop offset="0.00188079" stop-color="#6E49FD"/>
<stop offset="1" stop-color="#9C82FF"/>
</linearGradient>
<linearGradient id="paint10_linear_194_697" x1="12.0174" y1="54.2849" x2="51.7086" y2="54.2849" gradientUnits="userSpaceOnUse">
<stop offset="0.00188079" stop-color="#6E49FD"/>
<stop offset="1" stop-color="#9C82FF"/>
</linearGradient>
<linearGradient id="paint11_linear_194_697" x1="12.0174" y1="69.5579" x2="51.7086" y2="69.5579" gradientUnits="userSpaceOnUse">
<stop offset="0.00188079" stop-color="#6E49FD"/>
<stop offset="1" stop-color="#9C82FF"/>
</linearGradient>
<clipPath id="clip0_194_697">
<rect width="279" height="76" fill="white"/>
</clipPath>
</defs>
</svg>
