<svg width="170" height="39" viewBox="0 0 170 39" fill="none" xmlns="http://www.w3.org/2000/svg">
<path d="M41.1193 29.3555L47.3183 1.63901C47.508 0.80116 46.8655 0 46.0087 0H39.6629C39.0326 0 38.488 0.434216 38.3533 1.05191L30.2329 37.361C30.0432 38.1988 30.6857 39 31.5424 39H49.6559C50.2862 39 50.8308 38.5658 50.9655 37.9481L52.3485 31.7712C52.5382 30.9334 51.8956 30.1322 51.0389 30.1322H41.7435C41.3335 30.1322 41.0275 29.753 41.1193 29.3555Z" fill="#9C82FF"/>
<path d="M30.4404 7.6638H26.5607C25.6979 7.6638 25.0615 6.86875 25.2512 6.02478L26.0956 2.24526C26.2303 1.63369 26.781 1.19336 27.4052 1.19336H31.2849C32.1478 1.19336 32.7842 1.9884 32.5945 2.83237L31.7561 6.61801C31.6154 7.22958 31.0707 7.6638 30.4404 7.6638Z" fill="url(#paint0_linear_194_425)"/>
<path d="M28.1948 17.7117H24.3151C23.4523 17.7117 22.8159 16.9166 23.0056 16.0726L23.85 12.2931C23.9847 11.6815 24.5354 11.2412 25.1596 11.2412H29.0393C29.9022 11.2412 30.5386 12.0363 30.3489 12.8802L29.5105 16.6597C29.3698 17.2713 28.8251 17.7117 28.1948 17.7117Z" fill="url(#paint1_linear_194_425)"/>
<path d="M25.9492 27.7536H22.0695C21.2067 27.7536 20.5703 26.9586 20.76 26.1146L21.6044 22.3351C21.7391 21.7235 22.2898 21.2832 22.914 21.2832H26.7937C27.6565 21.2832 28.293 22.0782 28.1033 22.9222L27.2588 26.7017C27.1242 27.3194 26.5795 27.7536 25.9492 27.7536Z" fill="url(#paint2_linear_194_425)"/>
<path d="M23.7031 37.8015H19.8234C18.9606 37.8015 18.3242 37.0065 18.5139 36.1625L19.3583 32.383C19.493 31.7714 20.0437 31.3311 20.6679 31.3311H24.5476C25.4105 31.3311 26.0469 32.1261 25.8572 32.9701L25.0127 36.7496C24.8781 37.3612 24.3334 37.8015 23.7031 37.8015Z" fill="url(#paint3_linear_194_425)"/>
<path d="M18.1468 6.62937H16.3967C15.5338 6.62937 14.8974 5.83433 15.0871 4.99036L15.4665 3.29019C15.6011 2.67861 16.1519 2.23828 16.7761 2.23828H18.5262C19.3891 2.23828 20.0255 3.03333 19.8358 3.8773L19.4564 5.57747C19.3217 6.18904 18.7771 6.62937 18.1468 6.62937Z" fill="url(#paint4_linear_194_425)"/>
<path d="M15.9012 16.6714H14.1511C13.2882 16.6714 12.6518 15.8763 12.8415 15.0324L13.2209 13.3322C13.3555 12.7206 13.9063 12.2803 14.5305 12.2803H16.2806C17.1435 12.2803 17.7799 13.0753 17.5902 13.9193L17.2108 15.6195C17.0761 16.2372 16.5315 16.6714 15.9012 16.6714Z" fill="url(#paint5_linear_194_425)"/>
<path d="M13.6551 26.7134H11.905C11.0421 26.7134 10.4057 25.9183 10.5954 25.0743L10.9748 23.3742C11.1094 22.7626 11.6602 22.3223 12.2844 22.3223H14.0345C14.8974 22.3223 15.5338 23.1173 15.3441 23.9613L14.9647 25.6615C14.83 26.2791 14.2854 26.7134 13.6551 26.7134Z" fill="url(#paint6_linear_194_425)"/>
<path d="M11.4095 36.7622H9.65936C8.79652 36.7622 8.1601 35.9671 8.3498 35.1232L8.72921 33.423C8.86383 32.8114 9.41458 32.3711 10.0388 32.3711H11.7889C12.6518 32.3711 13.2882 33.1661 13.0985 34.0101L12.7191 35.7103C12.5844 36.3219 12.0398 36.7622 11.4095 36.7622Z" fill="url(#paint7_linear_194_425)"/>
<path d="M8.08638 5.77198C7.22354 5.77198 6.581 4.97693 6.7707 4.13296C6.90533 3.52139 7.45608 3.08105 8.08026 3.08105C8.9431 3.08105 9.57952 3.8761 9.38982 4.72007C9.26131 5.33776 8.71056 5.77198 8.08638 5.77198Z" fill="url(#paint8_linear_194_425)"/>
<path d="M5.84077 15.8198C4.97794 15.8198 4.3354 15.0248 4.5251 14.1808C4.65973 13.5692 5.21047 13.1289 5.83465 13.1289C6.69749 13.1289 7.33391 13.924 7.14421 14.7679C7.0157 15.3856 6.46495 15.8198 5.84077 15.8198Z" fill="url(#paint9_linear_194_425)"/>
<path d="M3.59468 25.8618C2.73184 25.8618 2.0893 25.0668 2.279 24.2228C2.41363 23.6112 2.96438 23.1709 3.58856 23.1709C4.4514 23.1709 5.08782 23.9659 4.89812 24.8099C4.76961 25.4276 4.22498 25.8618 3.59468 25.8618Z" fill="url(#paint10_linear_194_425)"/>
<path d="M1.34907 35.9097C0.486236 35.9097 -0.156303 35.1146 0.0333988 34.2707C0.168026 33.6591 0.718774 33.2188 1.34295 33.2188C2.20579 33.2188 2.84221 34.0138 2.65251 34.8578C2.524 35.4693 1.97937 35.9097 1.34907 35.9097Z" fill="url(#paint11_linear_194_425)"/>
<path d="M72.12 16.8849L71.508 19.9367H61.4722L64.8378 3.1123H68.3014L65.5355 16.8849H72.12Z" fill="black"/>
<path d="M88.9115 6.95335L86.3169 19.9309H83.8385L83.759 18.7261C82.5106 19.6985 80.9563 20.2856 79.2489 20.2856C75.8098 20.2856 73.46 17.8088 73.46 14.5002C73.46 10.1886 76.9113 6.59863 81.3418 6.59863C83.1286 6.59863 84.6034 7.3264 85.5764 8.52509L86.323 6.95335H88.9115ZM84.2669 12.6104C84.2669 10.8796 83.0491 9.736 81.2194 9.736C78.8879 9.736 76.8624 11.8582 76.8624 14.2678C76.8624 15.9985 78.0495 17.1299 79.8731 17.1299C82.2169 17.1299 84.2669 15.0078 84.2669 12.6104Z" fill="black"/>
<path d="M103.562 10.7579C103.562 11.8403 103.396 12.3785 101.879 19.9376H98.5375C99.9694 12.7822 100.104 12.3296 100.104 11.7058C100.104 10.3848 99.4493 9.71207 98.1581 9.71207C96.3467 9.71207 94.9393 11.0147 94.4742 13.0574L93.0973 19.9437H89.7561L92.3507 6.96611H94.6516L94.9576 8.54397C96.1448 7.3514 97.8154 6.6114 99.6084 6.6114C102.117 6.59916 103.562 8.2443 103.562 10.7579Z" fill="black"/>
<path d="M121.596 2.28125L118.059 19.9312H115.672L115.452 18.7203C114.173 19.6866 112.637 20.2737 111.046 20.2737C107.809 20.2737 105.477 17.8641 105.477 14.5372C105.477 10.1889 108.983 6.59895 113.426 6.59895C114.925 6.59895 116.18 7.13102 117.104 8.01169L118.254 2.28737H121.596V2.28125ZM116.278 12.7147C116.278 10.9411 115.06 9.75467 113.181 9.75467C110.868 9.75467 108.898 11.8279 108.898 14.1641C108.898 15.9377 110.122 17.118 112 17.118C114.301 17.118 116.278 15.0876 116.278 12.7147Z" fill="black"/>
<path d="M125.035 2.28125H128.376L124.839 19.9312H121.498L125.035 2.28125Z" fill="black"/>
<path d="M128.615 14.4757C128.615 10.1335 132.2 6.59863 136.662 6.59863C140.217 6.59863 142.665 9.08774 142.665 12.4086C142.665 16.7324 139.066 20.2856 134.618 20.2856C131.056 20.2917 128.615 17.7782 128.615 14.4757ZM139.268 12.5798C139.268 10.8613 138.136 9.74212 136.343 9.74212C133.865 9.74212 131.999 11.8949 131.999 14.3106C131.999 16.0291 133.131 17.1483 134.924 17.1483C137.414 17.1483 139.268 14.9894 139.268 12.5798Z" fill="black"/>
<path d="M154.194 6.886L153.557 10.0356H152.058C150.118 10.0356 149.084 10.9101 148.619 12.8672L147.205 19.9308H143.864L146.459 6.95327H148.619L148.87 8.46386C150.039 7.38137 151.409 6.87988 153.043 6.87988H154.194V6.886Z" fill="black"/>
<path d="M169.908 2.28125L166.371 19.9312H163.978L163.758 18.7203C162.479 19.6866 160.943 20.2737 159.352 20.2737C156.115 20.2737 153.783 17.8641 153.783 14.5372C153.783 10.1889 157.29 6.59895 161.733 6.59895C163.232 6.59895 164.486 7.13102 165.41 8.01169L166.561 2.28737H169.908V2.28125ZM164.584 12.7147C164.584 10.9411 163.366 9.75467 161.488 9.75467C159.175 9.75467 157.204 11.8279 157.204 14.1641C157.204 15.9377 158.428 17.118 160.307 17.118C162.608 17.118 164.584 15.0876 164.584 12.7147Z" fill="black"/>
<path d="M74.5739 36.6868C72.4137 36.6868 70.8533 35.5187 70.8533 33.684C70.8533 33.4761 70.8716 33.2681 70.9083 33.0602H73.454C73.4357 33.1519 73.4295 33.2437 73.4295 33.3293C73.4295 34.0999 74.0966 34.4913 74.9778 34.4913C75.8957 34.4913 76.8014 34.0387 76.8014 33.1948C76.8014 32.522 75.9385 32.3386 74.9288 32.1612C73.5091 31.8982 71.814 31.5619 71.814 29.721C71.814 27.2747 73.8701 25.8926 76.4831 25.8926C78.6861 25.8926 80.0752 27.1035 80.0752 28.7242C80.0752 28.9015 80.0569 29.0911 80.0202 29.2868H77.5479C77.5602 29.2012 77.5724 29.1156 77.5724 29.0422C77.5724 28.3756 77.0522 28.0147 76.1527 28.0147C75.1552 28.0147 74.427 28.504 74.427 29.2134C74.427 29.8739 75.2899 30.039 76.3057 30.2286C77.7315 30.4855 79.4694 30.828 79.4694 32.6872C79.4572 35.2496 77.3154 36.6868 74.5739 36.6868Z" fill="#9C82FF"/>
<path d="M87.3816 28.5345C86.6412 32.2039 86.5861 32.4485 86.5861 32.7054C86.5861 33.5249 87.1063 33.9652 88.0548 33.9652H89.2358L88.7524 36.4054H87.2593C85.1419 36.4054 83.8813 35.2434 83.8813 33.3476C83.8813 32.7727 83.9792 32.3629 84.7442 28.5345H82.8533L82.9695 27.9718L87.8896 23.4951H88.3975L87.8651 26.1677H90.7596L90.2884 28.5406H87.3816V28.5345Z" fill="#9C82FF"/>
<path d="M100.618 26.1064L100.116 28.5955H98.9353C97.3993 28.5955 96.5915 29.2866 96.2244 30.8339L95.1045 36.4053H92.467L94.517 26.1676H96.2244L96.4202 27.3602C97.3442 26.504 98.4274 26.1126 99.7124 26.1126H100.618V26.1064Z" fill="#9C82FF"/>
<path d="M104.614 32.0511C104.614 32.0939 104.614 32.1367 104.614 32.1857C104.614 33.5862 105.428 34.3323 106.86 34.3323C107.9 34.3323 108.83 33.8491 109.405 33.0724H112.239C111.052 35.3597 109.014 36.693 106.542 36.693C103.904 36.693 102.099 34.7115 102.099 32.1551C102.099 28.7364 104.669 25.8926 108.255 25.8926C110.954 25.8926 112.796 27.9108 112.796 30.4182C112.808 31.0237 112.698 31.5374 112.557 32.0572L104.614 32.0511ZM108.071 28.1493C106.682 28.1493 105.624 29.0177 105.061 30.1919H110.323C110.195 28.8709 109.387 28.1493 108.071 28.1493Z" fill="#9C82FF"/>
<path d="M127.96 26.1622L125.91 36.3999H123.951L123.884 35.452C122.899 36.2226 121.675 36.6874 120.323 36.6874C117.606 36.6874 115.758 34.7364 115.758 32.1189C115.758 28.7186 118.481 25.8809 121.975 25.8809C123.388 25.8809 124.551 26.4557 125.316 27.4037L125.904 26.1622H127.96ZM124.294 30.6267C124.294 29.2629 123.333 28.3577 121.889 28.3577C120.047 28.3577 118.45 30.0334 118.45 31.9293C118.45 33.2931 119.386 34.186 120.824 34.186C122.685 34.1921 124.294 32.5164 124.294 30.6267Z" fill="#9C82FF"/>
<path d="M147.052 29.0053C147.04 29.6964 146.924 30.1245 145.682 36.3992H143.032C144.17 30.7605 144.305 30.2345 144.305 29.733C144.305 28.8218 143.87 28.3264 143.008 28.3264C141.784 28.3264 140.817 29.2499 140.462 30.8094C140.254 31.8674 139.905 33.5615 139.336 36.3992H136.766C137.916 30.6565 138.039 30.2223 138.039 29.733C138.039 28.8646 137.629 28.3264 136.766 28.3264C135.53 28.3264 134.538 29.2499 134.196 30.8033L133.076 36.3992H130.438L132.488 26.1615H134.336L134.544 27.3173C135.419 26.4306 136.637 25.874 137.959 25.874C139.207 25.874 140.144 26.5162 140.554 27.5253C141.416 26.5101 142.708 25.874 144.176 25.874C145.926 25.8801 147.052 27.1644 147.052 29.0053Z" fill="#9C82FF"/>
<defs>
<linearGradient id="paint0_linear_194_425" x1="1.32712" y1="4.43324" x2="27.444" y2="4.43324" gradientUnits="userSpaceOnUse">
<stop offset="0.00188079" stop-color="#6E49FD"/>
<stop offset="1" stop-color="#9C82FF"/>
</linearGradient>
<linearGradient id="paint1_linear_194_425" x1="1.32734" y1="14.4776" x2="27.4442" y2="14.4776" gradientUnits="userSpaceOnUse">
<stop offset="0.00188079" stop-color="#6E49FD"/>
<stop offset="1" stop-color="#9C82FF"/>
</linearGradient>
<linearGradient id="paint2_linear_194_425" x1="1.32756" y1="24.5222" x2="27.4444" y2="24.5222" gradientUnits="userSpaceOnUse">
<stop offset="0.00188079" stop-color="#6E49FD"/>
<stop offset="1" stop-color="#9C82FF"/>
</linearGradient>
<linearGradient id="paint3_linear_194_425" x1="1.3273" y1="34.5665" x2="27.4442" y2="34.5665" gradientUnits="userSpaceOnUse">
<stop offset="0.00188079" stop-color="#6E49FD"/>
<stop offset="1" stop-color="#9C82FF"/>
</linearGradient>
<linearGradient id="paint4_linear_194_425" x1="1.32742" y1="4.43237" x2="27.4443" y2="4.43237" gradientUnits="userSpaceOnUse">
<stop offset="0.00188079" stop-color="#6E49FD"/>
<stop offset="1" stop-color="#9C82FF"/>
</linearGradient>
<linearGradient id="paint5_linear_194_425" x1="1.32764" y1="14.477" x2="27.4445" y2="14.477" gradientUnits="userSpaceOnUse">
<stop offset="0.00188079" stop-color="#6E49FD"/>
<stop offset="1" stop-color="#9C82FF"/>
</linearGradient>
<linearGradient id="paint6_linear_194_425" x1="1.32737" y1="24.5216" x2="27.4442" y2="24.5216" gradientUnits="userSpaceOnUse">
<stop offset="0.00188079" stop-color="#6E49FD"/>
<stop offset="1" stop-color="#9C82FF"/>
</linearGradient>
<linearGradient id="paint7_linear_194_425" x1="1.3276" y1="34.5669" x2="27.4444" y2="34.5669" gradientUnits="userSpaceOnUse">
<stop offset="0.00188079" stop-color="#6E49FD"/>
<stop offset="1" stop-color="#9C82FF"/>
</linearGradient>
<linearGradient id="paint8_linear_194_425" x1="1.3273" y1="4.43117" x2="27.4442" y2="4.43117" gradientUnits="userSpaceOnUse">
<stop offset="0.00188079" stop-color="#6E49FD"/>
<stop offset="1" stop-color="#9C82FF"/>
</linearGradient>
<linearGradient id="paint9_linear_194_425" x1="1.32753" y1="14.4755" x2="27.4444" y2="14.4755" gradientUnits="userSpaceOnUse">
<stop offset="0.00188079" stop-color="#6E49FD"/>
<stop offset="1" stop-color="#9C82FF"/>
</linearGradient>
<linearGradient id="paint10_linear_194_425" x1="1.32726" y1="24.5201" x2="27.4441" y2="24.5201" gradientUnits="userSpaceOnUse">
<stop offset="0.00188079" stop-color="#6E49FD"/>
<stop offset="1" stop-color="#9C82FF"/>
</linearGradient>
<linearGradient id="paint11_linear_194_425" x1="1.32749" y1="34.5645" x2="27.4443" y2="34.5645" gradientUnits="userSpaceOnUse">
<stop offset="0.00188079" stop-color="#6E49FD"/>
<stop offset="1" stop-color="#9C82FF"/>
</linearGradient>
</defs>
</svg>
