<svg width="34" height="32" viewBox="0 0 34 32" fill="none" xmlns="http://www.w3.org/2000/svg">
<ellipse cx="17.186" cy="15.9615" rx="16.8141" ry="15.9615" fill="#9C82FF"/>
<path d="M25.7839 10.9668C25.1543 11.2246 24.4692 11.4102 23.7635 11.4824C24.4962 11.0692 25.0449 10.4164 25.3066 9.64649C24.6191 10.0348 23.8659 10.307 23.0804 10.4512C22.7521 10.118 22.3551 9.85262 21.9141 9.67151C21.473 9.49039 20.9974 9.39744 20.5168 9.39845C18.5725 9.39845 17.0089 10.8945 17.0089 12.7305C17.0089 12.9883 17.0418 13.2461 17.0953 13.4941C14.184 13.3496 11.5875 12.0293 9.86126 10.0078C9.54673 10.5178 9.3819 11.0985 9.38393 11.6895C9.38393 12.8457 10.0032 13.8652 10.9476 14.4649C10.3911 14.444 9.84756 14.2988 9.3613 14.041V14.082C9.3613 15.7012 10.567 17.043 12.1738 17.3516C11.8721 17.426 11.5618 17.464 11.25 17.4649C11.0217 17.4649 10.8056 17.4434 10.5875 17.4141C11.032 18.7344 12.3261 19.6934 13.8671 19.7246C12.6615 20.6211 11.1513 21.1484 9.51149 21.1484C9.21727 21.1484 8.94569 21.1387 8.66382 21.1074C10.2193 22.0547 12.0648 22.6016 14.0523 22.6016C20.5045 22.6016 24.0351 17.5274 24.0351 13.1231C24.0351 12.9785 24.0351 12.834 24.0248 12.6895C24.7079 12.2149 25.3066 11.627 25.7839 10.9668Z" fill="white"/>
</svg>
